<?xml version="1.0" encoding="UTF-8"?>
<svg version="1.1" xmlns="http://www.w3.org/2000/svg" width="412" height="255">
<path d="M0 0 C135.96 0 271.92 0 412 0 C412 84.15 412 168.3 412 255 C276.04 255 140.08 255 0 255 C0 170.85 0 86.7 0 0 Z " fill="#FEFEFE" transform="translate(0,0)"/>
<path d="M0 0 C11.55 0 23.1 0 35 0 C38.0625 6.125 38.0625 6.125 39.18457031 8.37133789 C41.30664569 12.61884333 43.43340134 16.86394975 45.56593323 21.10621643 C52.53446909 34.97116112 59.42645211 48.86213345 66.0859375 62.87890625 C69.39630283 69.84530229 72.74128032 76.7948885 76.0949707 83.74050903 C76.7789102 85.15781113 77.46202263 86.57551265 78.14428711 87.99362183 C79.09680083 89.97327998 80.05195929 91.95164008 81.0078125 93.9296875 C81.56098145 95.07679199 82.11415039 96.22389648 82.68408203 97.40576172 C83.76380866 99.86738828 83.76380866 99.86738828 85 101 C85.25676482 100.48554856 85.51352964 99.97109713 85.77807522 99.44105625 C92.01834838 86.93845065 98.26084611 74.43695802 104.50575924 61.93666935 C107.52567751 55.89167079 110.54484318 49.84629852 113.56225586 43.80004883 C116.47169892 37.9701524 119.38321462 32.14129397 122.29602242 26.31307793 C123.40954504 24.08417838 124.52236105 21.85492568 125.6344738 19.62532234 C127.18668284 16.51369423 128.74135103 13.403307 130.29663086 10.29321289 C130.76057251 9.36173431 131.22451416 8.43025574 131.70251465 7.47055054 C132.12459702 6.62776047 132.54667938 5.7849704 132.98155212 4.91664124 C133.53324522 3.81187234 133.53324522 3.81187234 134.09608364 2.68478489 C135 1 135 1 136 0 C146.23 0 156.46 0 167 0 C167 39.6 167 79.2 167 120 C159.74 120 152.48 120 145 120 C144.67 87.66 144.34 55.32 144 22 C134.246008 41.5473233 134.246008 41.5473233 124.49658203 61.09692383 C117.78333029 74.54664763 111.03477788 87.96934599 103.94732666 101.22720337 C102.64110107 103.67163191 101.34808645 106.1229849 100.0546875 108.57421875 C99.3284186 109.94546804 98.60182656 111.31654621 97.875 112.6875 C96.59625 115.100625 95.3175 117.51375 94 120 C87.07 120 80.14 120 73 120 C61.53037273 98.51720607 50.58068562 76.74459472 40.125 54.75 C34.8885402 43.76620626 29.44176876 32.88353752 24 22 C23.67 54.67 23.34 87.34 23 121 C15.41 121 7.82 121 0 121 C0 81.07 0 41.14 0 0 Z " fill="#4F3151" transform="translate(127,30)"/>
<path d="M0 0 C3.71751316 1.28677365 6.08469622 2.71072799 8.85702515 5.48953247 C9.58581375 6.21275192 10.31460236 6.93597137 11.06547546 7.68110657 C11.85001602 8.47486191 12.63455658 9.26861725 13.44287109 10.08642578 C14.28091782 10.92242813 15.11896454 11.75843048 15.98240662 12.61976624 C18.27524899 14.91011809 20.5612717 17.20701886 22.84427977 19.50716639 C25.24221218 21.92018008 27.64829306 24.32504291 30.05337524 26.73092651 C34.09498586 30.77622812 38.13092378 34.82711749 42.16308594 38.88183594 C47.3196041 44.06714343 52.48526856 49.24323597 57.6539669 54.416399 C62.11589424 58.88232697 66.57356261 63.35249932 71.03056383 67.8233428 C72.45352772 69.2503815 73.87705975 70.67685155 75.30067062 72.10324478 C77.96916434 74.77865473 80.63425641 77.45740629 83.29833984 80.13720703 C84.07883194 80.91881699 84.85932404 81.70042694 85.66346741 82.50572205 C101.58525826 98.55130405 112.48550827 116.48523122 122.89453125 136.46484375 C123.3016333 137.24335693 123.70873535 138.02187012 124.12817383 138.82397461 C125 141 125 141 125 145 C115.99262681 142.92137542 109.26544168 135.46543033 102.65234375 129.40625 C101.24766418 128.13190152 99.83808519 126.86213365 98.39404297 125.63256836 C82.01788594 111.64884858 65.39419845 95.82464628 53.328125 77.93554688 C50.70208455 74.10847911 47.8922794 70.41294425 45.125 66.6875 C43.94180944 65.08008836 42.75951976 63.47201321 41.578125 61.86328125 C39.19902341 58.62679305 36.81343183 55.39526361 34.421875 52.16796875 C26.80258971 41.87890095 19.28881251 31.52633123 12 21 C11.51950195 20.30793457 11.03900391 19.61586914 10.54394531 18.90283203 C9.14483796 16.87900478 7.75770578 14.84755927 6.375 12.8125 C5.96088867 12.21276367 5.54677734 11.61302734 5.12011719 10.99511719 C2.73816061 7.44927281 1.15997851 4.10981635 0 0 Z " fill="#7D7A79" transform="translate(76,110)"/>
<path d="M0 0 C-1.49077805 5.74361112 -4.44834055 9.96695337 -7.8125 14.75 C-8.39 15.58200928 -8.9675 16.41401855 -9.5625 17.27124023 C-15.07241212 25.17829281 -20.71331348 32.99019265 -26.38818359 40.77929688 C-27.98296514 42.97652997 -29.56568875 45.18191727 -31.14453125 47.390625 C-38.87151671 58.18713661 -46.8221377 68.80173043 -54.94140625 79.30664062 C-56.38143165 81.19069663 -57.79898699 83.0920435 -59.19921875 85.00585938 C-65.39667504 93.35917423 -72.29480529 100.69741084 -79.70507812 107.98632812 C-81.63686484 109.88667172 -83.55751196 111.7977407 -85.4765625 113.7109375 C-91.48144596 119.67814364 -97.50849813 125.55786186 -104 131 C-105.05369059 131.90980293 -106.10709023 132.81994297 -107.16015625 133.73046875 C-120.47217806 145 -120.47217806 145 -125 145 C-124.43836709 140.2078854 -122.99094598 136.31869591 -120.8125 132.0625 C-120.47226807 131.39226807 -120.13203613 130.72203613 -119.78149414 130.03149414 C-116.40260239 123.53071318 -112.70152522 117.22121563 -108.9375 110.9375 C-108.36040283 109.96240479 -107.78330566 108.98730957 -107.1887207 107.98266602 C-104.15839908 103.0073766 -101.12363202 98.73897641 -96.84158707 94.77919006 C-95.04409114 93.04259724 -93.43391961 91.2403353 -91.81536865 89.3371582 C-87.87632473 84.79886055 -83.69503077 80.54010128 -79.45019531 76.2890625 C-78.62493851 75.45884079 -77.7996817 74.62861908 -76.94941711 73.77323914 C-74.24507295 71.05440188 -71.53694894 68.33937358 -68.828125 65.625 C-67.41726786 64.2098425 -66.006411 62.79468473 -64.59559035 61.37949085 C-60.67566441 57.44780708 -56.75364979 53.51821896 -52.82957292 49.59067822 C-47.76064895 44.51725343 -42.69837338 39.43731366 -37.64163709 34.35174179 C-33.72149582 30.4100249 -29.79564833 26.47405196 -25.86537433 22.54243851 C-23.52156957 20.19758498 -21.18100198 17.84964971 -18.84488678 15.49713135 C-16.24764102 12.88293494 -13.64121487 10.27825106 -11.03222656 7.67578125 C-10.25919693 6.89353683 -9.4861673 6.11129242 -8.68971252 5.30534363 C-7.98050156 4.60170181 -7.27129059 3.89806 -6.54058838 3.1730957 C-5.92562626 2.55666702 -5.31066414 1.94023834 -4.6770668 1.30513 C-3 0 -3 0 0 0 Z " fill="#7D7A79" transform="translate(342,110)"/>
<path d="M0 0 C2.23369011 0.02307968 4.46741964 0.04262091 6.70117188 0.05859375 C30.32694768 0.32161051 30.32694768 0.32161051 38.9375 2.625 C39.2675 3.285 39.5975 3.945 39.9375 4.625 C30.11556206 8.48361848 20.66913831 10.21919268 10.1875 11.25 C8.96482422 11.37737549 7.74214844 11.50475098 6.48242188 11.63598633 C1.2558977 12.16552307 -3.93573589 12.65009928 -9.1875 12.8046875 C-25.50688102 13.67833065 -38.56200378 23.4990185 -51.94433594 32.02099609 C-55.9717031 34.58043214 -60.04311105 37.06122631 -64.1328125 39.51953125 C-64.77534973 39.90602844 -65.41788696 40.29252563 -66.07989502 40.69073486 C-67.33984579 41.44829944 -68.599914 42.20566872 -69.86010742 42.96282959 C-72.73759061 44.69441324 -75.60802788 46.43721275 -78.4765625 48.18359375 C-79.4145166 48.75392334 -80.3524707 49.32425293 -81.31884766 49.91186523 C-83.33892791 51.17320205 -85.32371394 52.49149963 -87.28662109 53.84008789 C-90.0625 55.625 -90.0625 55.625 -92.0625 55.625 C-89.83059947 49.57250755 -86.44327674 44.18220298 -83.14282227 38.66943359 C-82.38578092 37.39794053 -81.6363054 36.1219098 -80.89477539 34.84130859 C-72.89251493 21.02586672 -63.64031753 14.74257336 -49.0625 8.625 C-48.2656781 8.28574997 -47.4688562 7.94649994 -46.64788818 7.5969696 C-30.83810833 1.01818297 -17.001652 -0.45438154 0 0 Z " fill="#BEBDBD" transform="translate(142.0625,-0.625)"/>
<path d="M0 0 C2.22096369 -0.0229115 4.44182289 -0.06361156 6.66210938 -0.12304688 C23.78767798 -0.57904937 37.6665778 2.22937341 53.5480957 8.59033203 C55.0252012 9.16311359 56.50277215 9.73469731 57.98095703 10.3046875 C71.86819407 15.74374863 79.23807492 22.9505038 86.4855957 35.65283203 C87.23170082 36.92025315 87.97973849 38.18653867 88.72973633 39.45166016 C91.8493775 44.74769448 94.84366239 50.06772027 97.5480957 55.59033203 C93.77255594 54.19507031 90.48480981 52.45330051 87.05981445 50.34423828 C85.97587402 49.68053223 84.89193359 49.01682617 83.77514648 48.33300781 C83.19927795 47.9782135 82.62340942 47.62341919 82.03009033 47.25787354 C78.92838274 45.34785633 75.81809007 43.45191631 72.70825195 41.55517578 C72.05407288 41.15588867 71.3998938 40.75660156 70.72589111 40.34521484 C63.60961479 36.00749488 56.45623806 31.73259292 49.29190063 27.474823 C47.88754939 26.64002802 46.48371377 25.80436497 45.08041382 24.96780396 C43.10480047 23.79028899 41.12750408 22.61565478 39.1496582 21.44189453 C38.01866699 20.76980957 36.88767578 20.09772461 35.72241211 19.40527344 C34.6748877 18.80634277 33.62736328 18.20741211 32.5480957 17.59033203 C31.1573584 16.76722534 31.1573584 16.76722534 29.73852539 15.92749023 C25.48508074 14.14480609 21.46513039 13.76560107 16.8996582 13.34423828 C15.50437393 13.19836525 15.50437393 13.19836525 14.0809021 13.04954529 C10.13039482 12.63695272 6.17736671 12.25136334 2.22436523 11.86352539 C-23.90097374 9.2640869 -23.90097374 9.2640869 -33.4519043 5.59033203 C-33.7819043 4.60033203 -34.1119043 3.61033203 -34.4519043 2.59033203 C-23.05625929 0.18842642 -11.60159441 0.08280214 0 0 Z " fill="#BEBDBD" transform="translate(270.451904296875,-0.59033203125)"/>
<path d="M0 0 C0.89009766 -0.01998047 1.78019531 -0.03996094 2.69726562 -0.06054688 C11.12943197 -0.05438751 18.42062908 2.48174638 24.5625 8.4375 C26.27055274 11.12158288 26.5625 12.19919533 26.5625 15.4375 C24.4836618 15.74091425 22.398927 16.0041325 20.3125 16.25 C19.15234375 16.40082031 17.9921875 16.55164063 16.796875 16.70703125 C13.5625 16.4375 13.5625 16.4375 11.3125 14.03125 C10.735 13.1753125 10.1575 12.319375 9.5625 11.4375 C3.65402654 8.61754676 -2.00420745 8.69513956 -8.125 10.5625 C-11.91566926 12.70816185 -14.7620711 14.36434619 -16.4375 18.4375 C-17.35616548 25.81307145 -17.30037775 31.94636886 -13.4375 38.4375 C-9.43067594 42.5526166 -6.25492991 42.71508943 -0.5625 42.8125 C4.78680652 42.66516741 9.47514572 42.06545337 14.5625 40.4375 C14.5625 38.1275 14.5625 35.8175 14.5625 33.4375 C9.9425 33.4375 5.3225 33.4375 0.5625 33.4375 C0.5625 30.4675 0.5625 27.4975 0.5625 24.4375 C9.4725 24.4375 18.3825 24.4375 27.5625 24.4375 C27.5625 31.3675 27.5625 38.2975 27.5625 45.4375 C14.62255875 52.17335983 1.75696444 54.87681204 -12.75390625 51.71484375 C-20.53039084 48.78233735 -26.01462503 44.10124223 -29.515625 36.51953125 C-31.55242533 29.71005895 -31.86997435 21.62764524 -29.55078125 14.84375 C-28.34914547 12.76783436 -27.09997103 11.16294342 -25.4375 9.4375 C-24.90640625 8.87675781 -24.3753125 8.31601562 -23.828125 7.73828125 C-16.84036639 1.11914293 -9.28977734 -0.07367523 0 0 Z " fill="#FDC906" transform="translate(210.4375,22.5625)"/>
<path d="M0 0 C6.31126794 2.28255622 11.52178572 6.20150059 17 10 C17.57524414 10.39815918 18.15048828 10.79631836 18.74316406 11.20654297 C29.32348495 18.56358403 39.26114312 26.55965737 49 35 C43.80420058 41.2464508 38.15768936 46.90622511 32.36523438 52.59570312 C31.64787109 53.30533203 30.93050781 54.01496094 30.19140625 54.74609375 C29.55404541 55.37185303 28.91668457 55.9976123 28.26000977 56.64233398 C26.4816033 58.49758636 24.82956522 60.37162803 23.16943359 62.32836914 C17.17304719 69.22180297 10.56667722 75.55556348 4.09765625 82 C2.65012566 83.44566272 1.20281776 84.89154846 -0.24427795 86.33764648 C-4.03136477 90.12093719 -7.82144632 93.90121361 -11.61218262 97.68084717 C-15.48872884 101.54711645 -19.36240324 105.41626075 -23.23632812 109.28515625 C-30.821428 116.85957012 -38.40969819 124.43079924 -46 132 C-46.99 131.67 -47.98 131.34 -49 131 C-46.12791947 126.50898728 -42.9927553 122.46008416 -39.5 118.4375 C-38.97736572 117.83180176 -38.45473145 117.22610352 -37.91625977 116.60205078 C-32.8872554 110.80751768 -27.69119433 105.17468968 -22.45703125 99.56591797 C-20.10307066 97.03604142 -17.77016869 94.48699659 -15.4375 91.9375 C-14.53519984 90.95178301 -13.63285617 89.96610585 -12.73046875 88.98046875 C-12.28364746 88.49239746 -11.83682617 88.00432617 -11.37646484 87.50146484 C-9.95741269 85.95354524 -8.5356628 84.40814167 -7.11328125 82.86328125 C-1.99963498 77.30629035 3.06703545 71.7186585 8 66 C8.93737323 64.92827452 9.87488592 63.85667102 10.8125 62.78515625 C22.47768083 50.13435486 22.47768083 50.13435486 30 35 C29.56768066 34.60321045 29.13536133 34.2064209 28.68994141 33.79760742 C5.93665194 12.85430738 5.93665194 12.85430738 0 3 C0 2.01 0 1.02 0 0 Z " fill="#A29E9D" transform="translate(363,33)"/>
<path d="M0 0 C-0.60908765 3.54232555 -2.00829977 5.59724102 -4.25 8.375 C-4.88550781 9.16390625 -5.52101562 9.9528125 -6.17578125 10.765625 C-6.77777344 11.50296875 -7.37976562 12.2403125 -8 13 C-9.2065625 14.546875 -9.2065625 14.546875 -10.4375 16.125 C-13.04949888 19.05553533 -15.81391245 21.51575372 -18.796875 24.0546875 C-22.71467416 27.5140208 -26.34408054 31.26791555 -30 35 C-25.48354854 50.83086079 -8.71157966 65.26302983 2.33984375 77.125 C4.39421494 79.34528957 6.40336649 81.58217306 8.375 83.875 C11.77214694 87.80503273 15.3239876 91.58464068 18.875 95.375 C26.38372506 103.39610827 33.76617678 111.49586759 40.875 119.875 C41.33994873 120.4230127 41.80489746 120.97102539 42.28393555 121.53564453 C49 129.50243917 49 129.50243917 49 132 C45.42499608 131.41814387 43.75689421 130.13178395 41.21853638 127.59275818 C40.48126312 126.86249924 39.74398987 126.1322403 38.984375 125.37985229 C38.18531738 124.57315094 37.38625977 123.76644958 36.56298828 122.93530273 C35.71372772 122.08969284 34.86446716 121.24408295 33.98947144 120.37284851 C31.66143551 118.05153449 29.34026154 115.72361915 27.02225351 113.39229846 C24.59017129 110.94888666 22.15036727 108.51320682 19.7116394 106.07643127 C15.61259077 101.97826589 11.51956553 97.87415973 7.43017578 93.76635742 C2.71614838 89.03122544 -2.00657721 84.30491324 -6.73429286 79.58345073 C-11.29241619 75.03104593 -15.84480715 70.47295117 -20.39447403 65.91209602 C-22.32479241 63.97715798 -24.25695175 62.04408707 -26.1906395 60.1125164 C-28.90013016 57.40339839 -31.60300319 54.68784426 -34.30419922 51.97045898 C-35.09920837 51.17792725 -35.89421753 50.38539551 -36.71331787 49.56884766 C-41.25223284 44.9866472 -45.29367295 40.28136525 -49 35 C-35.80584047 22.12552275 -20.37274434 12.06475825 -5 2 C-2 0 -2 0 0 0 Z " fill="#A29E9D" transform="translate(55,33)"/>
<path d="M0 0 C0.33 0 0.66 0 1 0 C1 32.67 1 65.34 1 99 C0.67 99 0.34 99 0 99 C-0.33 68.31 -0.66 37.62 -1 6 C-1.99 6.495 -1.99 6.495 -3 7 C-1.125 1.125 -1.125 1.125 0 0 Z " fill="#DCD6DC" transform="translate(271,51)"/>
</svg>
